<mxfile host="app.diagrams.net" modified="2021-09-26T19:13:20.369Z" agent="5.0 (Windows NT 10.0; Win64; x64) AppleWebKit/537.36 (KHTML, like Gecko) Chrome/93.0.4577.82 Safari/537.36" etag="PKCaqH6Xi_Iaf1pz8ST2" version="15.3.4" type="github">
  <diagram id="m1V7zA7mebeq46YNh9Ek" name="Page-1">
    <mxGraphModel dx="1219" dy="672" grid="1" gridSize="10" guides="1" tooltips="1" connect="1" arrows="1" fold="1" page="1" pageScale="1" pageWidth="827" pageHeight="1169" math="0" shadow="0">
      <root>
        <mxCell id="0" />
        <mxCell id="1" parent="0" />
        <mxCell id="PxbL5v5Bzp1MklqN0sMN-2" value="5.2" style="swimlane;childLayout=stackLayout;horizontal=1;startSize=30;horizontalStack=0;rounded=1;fontSize=14;fontStyle=1;strokeWidth=2;resizeParent=0;resizeLast=1;shadow=0;dashed=0;align=center;hachureGap=4;pointerEvents=0;fillColor=#dae8fc;strokeColor=#6c8ebf;" vertex="1" parent="1">
          <mxGeometry x="349" y="280" width="130" height="120" as="geometry" />
        </mxCell>
        <mxCell id="PxbL5v5Bzp1MklqN0sMN-3" value="View Driver Info" style="align=center;spacingLeft=4;fontSize=14;verticalAlign=top;resizable=0;rotatable=0;part=1;" vertex="1" parent="PxbL5v5Bzp1MklqN0sMN-2">
          <mxGeometry y="30" width="130" height="90" as="geometry" />
        </mxCell>
        <mxCell id="PxbL5v5Bzp1MklqN0sMN-4" value="" style="align=center;spacingLeft=4;fontSize=14;verticalAlign=top;resizable=0;rotatable=0;part=1;" vertex="1" parent="PxbL5v5Bzp1MklqN0sMN-2">
          <mxGeometry y="120" width="130" as="geometry" />
        </mxCell>
        <mxCell id="PxbL5v5Bzp1MklqN0sMN-5" value="" style="align=center;spacingLeft=4;fontSize=14;verticalAlign=top;resizable=0;rotatable=0;part=1;" vertex="1" parent="PxbL5v5Bzp1MklqN0sMN-2">
          <mxGeometry y="120" width="130" as="geometry" />
        </mxCell>
        <mxCell id="PxbL5v5Bzp1MklqN0sMN-6" value="5.3" style="swimlane;childLayout=stackLayout;horizontal=1;startSize=30;horizontalStack=0;rounded=1;fontSize=14;fontStyle=1;strokeWidth=2;resizeParent=0;resizeLast=1;shadow=0;dashed=0;align=center;hachureGap=4;pointerEvents=0;fillColor=#dae8fc;strokeColor=#6c8ebf;" vertex="1" parent="1">
          <mxGeometry x="349" y="480" width="130" height="120" as="geometry" />
        </mxCell>
        <mxCell id="PxbL5v5Bzp1MklqN0sMN-7" value="Update Driver Info" style="align=center;spacingLeft=4;fontSize=14;verticalAlign=top;resizable=0;rotatable=0;part=1;" vertex="1" parent="PxbL5v5Bzp1MklqN0sMN-6">
          <mxGeometry y="30" width="130" height="90" as="geometry" />
        </mxCell>
        <mxCell id="PxbL5v5Bzp1MklqN0sMN-8" value="" style="align=center;spacingLeft=4;fontSize=14;verticalAlign=top;resizable=0;rotatable=0;part=1;" vertex="1" parent="PxbL5v5Bzp1MklqN0sMN-6">
          <mxGeometry y="120" width="130" as="geometry" />
        </mxCell>
        <mxCell id="PxbL5v5Bzp1MklqN0sMN-9" value="" style="align=center;spacingLeft=4;fontSize=14;verticalAlign=top;resizable=0;rotatable=0;part=1;" vertex="1" parent="PxbL5v5Bzp1MklqN0sMN-6">
          <mxGeometry y="120" width="130" as="geometry" />
        </mxCell>
        <mxCell id="PxbL5v5Bzp1MklqN0sMN-10" value="5.4" style="swimlane;childLayout=stackLayout;horizontal=1;startSize=30;horizontalStack=0;rounded=1;fontSize=14;fontStyle=1;strokeWidth=2;resizeParent=0;resizeLast=1;shadow=0;dashed=0;align=center;hachureGap=4;pointerEvents=0;fillColor=#dae8fc;strokeColor=#6c8ebf;" vertex="1" parent="1">
          <mxGeometry x="349" y="680" width="130" height="120" as="geometry" />
        </mxCell>
        <mxCell id="PxbL5v5Bzp1MklqN0sMN-11" value="Delete Driver Info" style="align=center;spacingLeft=4;fontSize=14;verticalAlign=top;resizable=0;rotatable=0;part=1;" vertex="1" parent="PxbL5v5Bzp1MklqN0sMN-10">
          <mxGeometry y="30" width="130" height="90" as="geometry" />
        </mxCell>
        <mxCell id="PxbL5v5Bzp1MklqN0sMN-12" value="" style="align=center;spacingLeft=4;fontSize=14;verticalAlign=top;resizable=0;rotatable=0;part=1;" vertex="1" parent="PxbL5v5Bzp1MklqN0sMN-10">
          <mxGeometry y="120" width="130" as="geometry" />
        </mxCell>
        <mxCell id="PxbL5v5Bzp1MklqN0sMN-13" value="" style="align=center;spacingLeft=4;fontSize=14;verticalAlign=top;resizable=0;rotatable=0;part=1;" vertex="1" parent="PxbL5v5Bzp1MklqN0sMN-10">
          <mxGeometry y="120" width="130" as="geometry" />
        </mxCell>
        <mxCell id="PxbL5v5Bzp1MklqN0sMN-18" value="&lt;b&gt;D1&amp;nbsp; TSM Database&lt;/b&gt;" style="html=1;dashed=0;whitespace=wrap;shape=mxgraph.dfd.dataStoreID;align=left;spacingLeft=3;points=[[0,0],[0.5,0],[1,0],[0,0.5],[1,0.5],[0,1],[0.5,1],[1,1]];hachureGap=4;pointerEvents=0;fontSize=14;" vertex="1" parent="1">
          <mxGeometry x="620" y="440" width="100" height="30" as="geometry" />
        </mxCell>
        <mxCell id="PxbL5v5Bzp1MklqN0sMN-21" value="&lt;b&gt;Driver&lt;/b&gt;" style="whiteSpace=wrap;html=1;align=center;hachureGap=4;pointerEvents=0;fontSize=14;fillColor=#f8cecc;strokeColor=#b85450;" vertex="1" parent="1">
          <mxGeometry x="620" y="720" width="100" height="40" as="geometry" />
        </mxCell>
        <mxCell id="PxbL5v5Bzp1MklqN0sMN-22" value="5.1" style="swimlane;childLayout=stackLayout;horizontal=1;startSize=30;horizontalStack=0;rounded=1;fontSize=14;fontStyle=1;strokeWidth=2;resizeParent=0;resizeLast=1;shadow=0;dashed=0;align=center;hachureGap=4;pointerEvents=0;fillColor=#dae8fc;strokeColor=#6c8ebf;" vertex="1" parent="1">
          <mxGeometry x="349" y="80" width="130" height="120" as="geometry" />
        </mxCell>
        <mxCell id="PxbL5v5Bzp1MklqN0sMN-23" value="Add New Driver" style="align=center;spacingLeft=4;fontSize=14;verticalAlign=top;resizable=0;rotatable=0;part=1;" vertex="1" parent="PxbL5v5Bzp1MklqN0sMN-22">
          <mxGeometry y="30" width="130" height="90" as="geometry" />
        </mxCell>
        <mxCell id="PxbL5v5Bzp1MklqN0sMN-24" value="" style="align=center;spacingLeft=4;fontSize=14;verticalAlign=top;resizable=0;rotatable=0;part=1;" vertex="1" parent="PxbL5v5Bzp1MklqN0sMN-22">
          <mxGeometry y="120" width="130" as="geometry" />
        </mxCell>
        <mxCell id="PxbL5v5Bzp1MklqN0sMN-25" value="" style="align=center;spacingLeft=4;fontSize=14;verticalAlign=top;resizable=0;rotatable=0;part=1;" vertex="1" parent="PxbL5v5Bzp1MklqN0sMN-22">
          <mxGeometry y="120" width="130" as="geometry" />
        </mxCell>
        <mxCell id="PxbL5v5Bzp1MklqN0sMN-19" value="&lt;b&gt;Admin&lt;/b&gt;" style="whiteSpace=wrap;html=1;align=center;hachureGap=4;pointerEvents=0;fontSize=14;fillColor=#008a00;strokeColor=#005700;fontColor=#ffffff;" vertex="1" parent="1">
          <mxGeometry x="100" y="440" width="100" height="40" as="geometry" />
        </mxCell>
        <mxCell id="PxbL5v5Bzp1MklqN0sMN-55" value="" style="endArrow=classic;html=1;sourcePerimeterSpacing=8;targetPerimeterSpacing=8;exitX=0.5;exitY=0;exitDx=0;exitDy=0;entryX=0;entryY=0.25;entryDx=0;entryDy=0;" edge="1" parent="1" source="PxbL5v5Bzp1MklqN0sMN-19" target="PxbL5v5Bzp1MklqN0sMN-23">
          <mxGeometry width="50" height="50" relative="1" as="geometry">
            <mxPoint x="400" y="280" as="sourcePoint" />
            <mxPoint x="450" y="230" as="targetPoint" />
            <Array as="points">
              <mxPoint x="150" y="132" />
            </Array>
          </mxGeometry>
        </mxCell>
        <mxCell id="PxbL5v5Bzp1MklqN0sMN-56" value="Can" style="text;html=1;align=center;verticalAlign=middle;resizable=0;points=[];autosize=1;strokeColor=none;fillColor=none;" vertex="1" parent="1">
          <mxGeometry x="240" y="110" width="40" height="20" as="geometry" />
        </mxCell>
        <mxCell id="PxbL5v5Bzp1MklqN0sMN-57" value="" style="endArrow=classic;html=1;sourcePerimeterSpacing=8;targetPerimeterSpacing=8;entryX=0.75;entryY=0;entryDx=0;entryDy=0;exitX=0.007;exitY=0.417;exitDx=0;exitDy=0;exitPerimeter=0;" edge="1" parent="1" source="PxbL5v5Bzp1MklqN0sMN-3" target="PxbL5v5Bzp1MklqN0sMN-19">
          <mxGeometry width="50" height="50" relative="1" as="geometry">
            <mxPoint x="340" y="360" as="sourcePoint" />
            <mxPoint x="450" y="230" as="targetPoint" />
            <Array as="points">
              <mxPoint x="175" y="348" />
            </Array>
          </mxGeometry>
        </mxCell>
        <mxCell id="PxbL5v5Bzp1MklqN0sMN-58" value="Can" style="text;html=1;align=center;verticalAlign=middle;resizable=0;points=[];autosize=1;strokeColor=none;fillColor=none;" vertex="1" parent="1">
          <mxGeometry x="230" y="330" width="40" height="20" as="geometry" />
        </mxCell>
        <mxCell id="PxbL5v5Bzp1MklqN0sMN-59" value="" style="endArrow=classic;html=1;sourcePerimeterSpacing=8;targetPerimeterSpacing=8;exitX=1;exitY=0.5;exitDx=0;exitDy=0;entryX=0.014;entryY=0.359;entryDx=0;entryDy=0;entryPerimeter=0;" edge="1" parent="1" source="PxbL5v5Bzp1MklqN0sMN-19" target="PxbL5v5Bzp1MklqN0sMN-7">
          <mxGeometry width="50" height="50" relative="1" as="geometry">
            <mxPoint x="400" y="390" as="sourcePoint" />
            <mxPoint x="450" y="340" as="targetPoint" />
            <Array as="points">
              <mxPoint x="280" y="460" />
              <mxPoint x="280" y="542" />
            </Array>
          </mxGeometry>
        </mxCell>
        <mxCell id="PxbL5v5Bzp1MklqN0sMN-60" value="Can" style="text;html=1;align=center;verticalAlign=middle;resizable=0;points=[];autosize=1;strokeColor=none;fillColor=none;" vertex="1" parent="1">
          <mxGeometry x="230" y="440" width="40" height="20" as="geometry" />
        </mxCell>
        <mxCell id="PxbL5v5Bzp1MklqN0sMN-61" value="" style="endArrow=classic;html=1;sourcePerimeterSpacing=8;targetPerimeterSpacing=8;exitX=0.5;exitY=1;exitDx=0;exitDy=0;entryX=0;entryY=0.5;entryDx=0;entryDy=0;" edge="1" parent="1" source="PxbL5v5Bzp1MklqN0sMN-19" target="PxbL5v5Bzp1MklqN0sMN-11">
          <mxGeometry width="50" height="50" relative="1" as="geometry">
            <mxPoint x="400" y="390" as="sourcePoint" />
            <mxPoint x="450" y="340" as="targetPoint" />
            <Array as="points">
              <mxPoint x="150" y="755" />
            </Array>
          </mxGeometry>
        </mxCell>
        <mxCell id="PxbL5v5Bzp1MklqN0sMN-62" value="Can" style="text;html=1;align=center;verticalAlign=middle;resizable=0;points=[];autosize=1;strokeColor=none;fillColor=none;" vertex="1" parent="1">
          <mxGeometry x="230" y="730" width="40" height="20" as="geometry" />
        </mxCell>
        <mxCell id="PxbL5v5Bzp1MklqN0sMN-63" value="" style="endArrow=classic;html=1;sourcePerimeterSpacing=8;targetPerimeterSpacing=8;exitX=1;exitY=0.5;exitDx=0;exitDy=0;" edge="1" parent="1" source="PxbL5v5Bzp1MklqN0sMN-23">
          <mxGeometry width="50" height="50" relative="1" as="geometry">
            <mxPoint x="400" y="470" as="sourcePoint" />
            <mxPoint x="720" y="439" as="targetPoint" />
            <Array as="points">
              <mxPoint x="720" y="155" />
            </Array>
          </mxGeometry>
        </mxCell>
        <mxCell id="PxbL5v5Bzp1MklqN0sMN-64" value="Store Driver Information" style="text;html=1;align=center;verticalAlign=middle;resizable=0;points=[];autosize=1;strokeColor=none;fillColor=none;" vertex="1" parent="1">
          <mxGeometry x="490" y="130" width="140" height="20" as="geometry" />
        </mxCell>
        <mxCell id="PxbL5v5Bzp1MklqN0sMN-65" value="" style="endArrow=classic;html=1;sourcePerimeterSpacing=8;targetPerimeterSpacing=8;exitX=0.603;exitY=-0.102;exitDx=0;exitDy=0;exitPerimeter=0;entryX=1;entryY=0.5;entryDx=0;entryDy=0;" edge="1" parent="1" source="PxbL5v5Bzp1MklqN0sMN-18" target="PxbL5v5Bzp1MklqN0sMN-2">
          <mxGeometry width="50" height="50" relative="1" as="geometry">
            <mxPoint x="400" y="470" as="sourcePoint" />
            <mxPoint x="450" y="420" as="targetPoint" />
            <Array as="points">
              <mxPoint x="680" y="340" />
            </Array>
          </mxGeometry>
        </mxCell>
        <mxCell id="PxbL5v5Bzp1MklqN0sMN-66" value="Provide Driver Information" style="text;html=1;align=center;verticalAlign=middle;resizable=0;points=[];autosize=1;strokeColor=none;fillColor=none;" vertex="1" parent="1">
          <mxGeometry x="510" y="320" width="150" height="20" as="geometry" />
        </mxCell>
        <mxCell id="PxbL5v5Bzp1MklqN0sMN-68" value="" style="endArrow=classic;html=1;sourcePerimeterSpacing=8;targetPerimeterSpacing=8;exitX=1;exitY=0.75;exitDx=0;exitDy=0;entryX=0.5;entryY=0;entryDx=0;entryDy=0;" edge="1" parent="1" source="PxbL5v5Bzp1MklqN0sMN-3" target="PxbL5v5Bzp1MklqN0sMN-21">
          <mxGeometry width="50" height="50" relative="1" as="geometry">
            <mxPoint x="400" y="470" as="sourcePoint" />
            <mxPoint x="450" y="420" as="targetPoint" />
            <Array as="points">
              <mxPoint x="600" y="378" />
              <mxPoint x="600" y="680" />
              <mxPoint x="670" y="680" />
            </Array>
          </mxGeometry>
        </mxCell>
        <mxCell id="PxbL5v5Bzp1MklqN0sMN-69" value="Can View Driver Info" style="text;html=1;align=center;verticalAlign=middle;resizable=0;points=[];autosize=1;strokeColor=none;fillColor=none;" vertex="1" parent="1">
          <mxGeometry x="479" y="360" width="130" height="20" as="geometry" />
        </mxCell>
      </root>
    </mxGraphModel>
  </diagram>
</mxfile>
